<svg xmlns="http://www.w3.org/2000/svg" version="1.1" xmlns:xlink="http://www.w3.org/1999/xlink" xmlns:svgjs="http://svgjs.dev/svgjs" width="1000" height="530" viewBox="0 0 1000 530"><g transform="matrix(1,0,0,1,-0.6060280369792395,-0.4576903994957888)"><svg viewBox="0 0 396 210" data-background-color="#883d1a" preserveAspectRatio="xMidYMid meet" height="530" width="1000" xmlns="http://www.w3.org/2000/svg" xmlns:xlink="http://www.w3.org/1999/xlink"><g id="tight-bounds" transform="matrix(1,0,0,1,0.2399871656191408,0.18134902621531523)"><svg viewBox="0 0 395.52 209.6373009376245" height="209.6373009376245" width="395.52"><g><svg viewBox="0 0 395.52 209.6373009376245" height="209.6373009376245" width="395.52"><g transform="matrix(1,0,0,1,0,126.45137995049575)"><svg viewBox="0 0 395.52 83.18592098712875" height="83.18592098712875" width="395.52"><g id="textblocktransform"><svg viewBox="0 0 395.52 83.18592098712875" height="83.18592098712875" width="395.52" id="textblock"><g><svg viewBox="0 0 395.52 48.6641469115192" height="48.6641469115192" width="395.52"><g transform="matrix(1,0,0,1,0,0)"><svg width="395.52" viewBox="1.2000000476837158 -36.25 299.47998046875 36.849998474121094" height="48.6641469115192" data-palette-color="#ffffff"><path d="M34.15-30.85L18.2-8.25 34.55-8.25 34.55 0 1.2 0 1.2-3.55 17.15-26.15 2.4-26.15 2.4-34.4 34.15-34.4 34.15-30.85ZM62.7-34.4Q65.3-34.4 67.47-33.33 69.65-32.25 70.92-30.3 72.2-28.35 72.2-25.95L72.2-25.95Q72.2-19.6 66.45-17.95L66.45-17.95 66.45-17.75Q73-16.25 73-9.15L73-9.15Q73-6.45 71.67-4.38 70.35-2.3 68.05-1.15 65.75 0 63 0L63 0 39.8 0 39.8-34.4 62.7-34.4ZM50.85-26.85L50.85-21 58.45-21Q59.55-21 60.27-21.78 61-22.55 61-23.7L61-23.7 61-24.2Q61-25.3 60.25-26.08 59.5-26.85 58.45-26.85L58.45-26.85 50.85-26.85ZM50.85-13.9L50.85-8 59.25-8Q60.35-8 61.07-8.78 61.8-9.55 61.8-10.7L61.8-10.7 61.8-11.2Q61.8-12.35 61.07-13.13 60.35-13.9 59.25-13.9L59.25-13.9 50.85-13.9ZM112.6 0L100.9 0 99.45-4.85 87.4-4.85 85.95 0 74.65 0 87.2-34.4 100.05-34.4 112.6 0ZM93.35-24.8L89.7-12.55 97.15-12.55 93.55-24.8 93.35-24.8ZM150.99 0L139.94 0 139.94-13.05 127.79-13.05 127.79 0 116.74 0 116.74-34.4 127.79-34.4 127.79-21.85 139.94-21.85 139.94-34.4 150.99-34.4 150.99 0ZM206.09-25.6L194.84-25.6 194.84 0 183.79 0 183.79-25.6 172.49-25.6 172.49-34.4 206.09-34.4 206.09-25.6ZM221.09-27Q228.34-27 232.16-23.6 235.99-20.2 235.99-13.2L235.99-13.2 235.99-11.5 216.19-11.5Q216.19-8.65 217.46-7.2 218.74-5.75 221.49-5.75L221.49-5.75Q223.99-5.75 225.16-6.8 226.34-7.85 226.34-9.6L226.34-9.6 235.99-9.6Q235.99-4.8 232.34-2.1 228.69 0.6 221.69 0.6L221.69 0.6Q214.34 0.6 210.29-2.83 206.24-6.25 206.24-13.2L206.24-13.2Q206.24-20 210.19-23.5 214.14-27 221.09-27L221.09-27ZM221.49-20.65Q216.79-20.65 216.24-16.2L216.24-16.2 225.94-16.2Q225.94-18.25 224.76-19.45 223.59-20.65 221.49-20.65L221.49-20.65ZM254.43-27Q260.93-27 264.96-24.23 268.98-21.45 268.98-15.75L268.98-15.75 259.33-15.75Q259.33-20.25 254.43-20.25L254.43-20.25Q249.53-20.25 249.53-14.6L249.53-14.6 249.53-11.75Q249.53-6.15 254.63-6.15L254.63-6.15Q259.73-6.15 259.73-10.75L259.73-10.75 268.98-10.75Q268.98-5 264.96-2.2 260.93 0.6 254.43 0.6L254.43 0.6Q247.48 0.6 243.53-2.9 239.58-6.4 239.58-13.2L239.58-13.2Q239.58-20 243.53-23.5 247.48-27 254.43-27L254.43-27ZM283.23-23.65Q284.83-25.25 286.98-26.13 289.13-27 291.48-27L291.48-27Q296.08-27 298.38-24.45 300.68-21.9 300.68-17.1L300.68-17.1 300.68 0 290.73 0 290.73-15.9Q290.73-17.6 289.86-18.63 288.98-19.65 287.38-19.65L287.38-19.65Q285.53-19.65 284.38-18.45 283.23-17.25 283.23-15.5L283.23-15.5 283.23 0 273.28 0 273.28-36.25 283.23-36.25 283.23-23.65Z" opacity="1" transform="matrix(1,0,0,1,0,0)" fill="#ffffff" class="undefined-text-0" data-fill-palette-color="primary" id="text-0"></path></svg></g></svg></g><g transform="matrix(1,0,0,1,75.54432,60.152584057803004)"><svg viewBox="0 0 244.43135999999998 23.033336929325753" height="23.033336929325753" width="244.43135999999998"><g transform="matrix(1,0,0,1,0,0)"><svg width="244.43135999999998" viewBox="1.5 -33.95000076293945 369.2699890136719 34.79999923706055" height="23.033336929325753" data-palette-color="#ffffff"><path d="M11.8 0.85L11.8 0.85Q9.05 0.85 6.23 0.18 3.4-0.5 1.5-1.6L1.5-1.6 1.8-8.55 3.25-8.55 4.8-5.1Q5.5-3.65 6.25-2.7 7-1.75 8.25-1.25L8.25-1.25Q9.1-0.9 9.88-0.78 10.65-0.65 11.6-0.65L11.6-0.65Q14.65-0.65 16.43-2.23 18.2-3.8 18.2-6.4L18.2-6.4Q18.2-8.75 16.98-10.1 15.75-11.45 13.05-12.7L13.05-12.7 11-13.6Q6.8-15.45 4.38-17.9 1.95-20.35 1.95-24.4L1.95-24.4Q1.95-27.4 3.48-29.53 5-31.65 7.7-32.8 10.4-33.95 14-33.95L14-33.95Q16.65-33.95 18.98-33.25 21.3-32.55 23.05-31.35L23.05-31.35 22.7-25.15 21.25-25.15 19.4-28.9Q18.6-30.55 17.88-31.28 17.15-32 16.1-32.2L16.1-32.2Q15.5-32.3 15.08-32.35 14.65-32.4 13.95-32.4L13.95-32.4Q11.5-32.4 9.73-30.98 7.95-29.55 7.95-27.05L7.95-27.05Q7.95-24.65 9.3-23.15 10.65-21.65 13.2-20.5L13.2-20.5 15.45-19.55Q20.3-17.45 22.4-15.08 24.5-12.7 24.5-9L24.5-9Q24.5-4.6 21.18-1.88 17.85 0.85 11.8 0.85ZM42.8 0.85L42.8 0.85Q39.05 0.85 36.17-0.5 33.3-1.85 31.67-4.78 30.05-7.7 30.05-12.5L30.05-12.5 30.05-17.9Q30.05-20.7 30.05-23.55 30.05-26.4 30-29.3L30-29.3Q30-31.25 28.15-31.75L28.15-31.75 27.05-32 27.05-33.05 40.55-33.05 40.55-32 39.15-31.7Q37.25-31.25 37.25-29.2L37.25-29.2Q37.2-26.4 37.2-23.58 37.2-20.75 37.2-17.9L37.2-17.9 37.2-11.55Q37.2-6.7 39.17-4.55 41.15-2.4 44.8-2.4L44.8-2.4Q48.65-2.4 50.82-4.73 53-7.05 53-11.65L53-11.65 53-29.05Q53-30.05 52.6-30.8 52.2-31.55 51.2-31.75L51.2-31.75 50-32 50-33.05 57.7-33.05 57.7-32 56.3-31.7Q55.35-31.5 55-30.8 54.65-30.1 54.65-29.1L54.65-29.1 54.65-11.95Q54.65-5.75 51.4-2.45 48.15 0.85 42.8 0.85ZM72.45 0L59.9 0 59.9-1.05 60.7-1.3Q61.75-1.7 62.12-2.35 62.5-3 62.5-4.1L62.5-4.1Q62.55-6.95 62.55-9.83 62.55-12.7 62.55-15.6L62.55-15.6 62.55-17.4Q62.55-20.3 62.52-23.18 62.5-26.05 62.5-28.95L62.5-28.95Q62.5-30.15 62.15-30.78 61.8-31.4 60.7-31.75L60.7-31.75 59.9-32 59.9-33.05 74-33.05Q80-33.05 82.7-30.83 85.4-28.6 85.4-25.2L85.4-25.2Q85.4-22.6 83.5-20.53 81.59-18.45 76.84-17.55L76.84-17.55Q82.34-16.95 84.8-14.7 87.25-12.45 87.25-9.2L87.25-9.2Q87.25-7.6 86.55-5.98 85.84-4.35 84.17-3 82.5-1.65 79.65-0.83 76.8 0 72.45 0L72.45 0ZM69.65-31.6L69.65-17.9 72-17.9Q75.4-17.9 76.92-19.43 78.45-20.95 78.45-24.65L78.45-24.65Q78.45-28.5 77.05-30.05 75.65-31.6 72.65-31.6L72.65-31.6 69.65-31.6ZM69.65-16.45L69.65-1.45 72.4-1.45Q76.15-1.45 78-3.3 79.84-5.15 79.84-9.25L79.84-9.25Q79.84-13.2 78.07-14.83 76.3-16.45 72.25-16.45L72.25-16.45 69.65-16.45ZM100.24 0.85L100.24 0.85Q97.49 0.85 94.67 0.18 91.84-0.5 89.94-1.6L89.94-1.6 90.24-8.55 91.69-8.55 93.24-5.1Q93.94-3.65 94.69-2.7 95.44-1.75 96.69-1.25L96.69-1.25Q97.54-0.9 98.32-0.78 99.09-0.65 100.04-0.65L100.04-0.65Q103.09-0.65 104.87-2.23 106.64-3.8 106.64-6.4L106.64-6.4Q106.64-8.75 105.42-10.1 104.19-11.45 101.49-12.7L101.49-12.7 99.44-13.6Q95.24-15.45 92.82-17.9 90.39-20.35 90.39-24.4L90.39-24.4Q90.39-27.4 91.92-29.53 93.44-31.65 96.14-32.8 98.84-33.95 102.44-33.95L102.44-33.95Q105.09-33.95 107.42-33.25 109.74-32.55 111.49-31.35L111.49-31.35 111.14-25.15 109.69-25.15 107.84-28.9Q107.04-30.55 106.32-31.28 105.59-32 104.54-32.2L104.54-32.2Q103.94-32.3 103.52-32.35 103.09-32.4 102.39-32.4L102.39-32.4Q99.94-32.4 98.17-30.98 96.39-29.55 96.39-27.05L96.39-27.05Q96.39-24.65 97.74-23.15 99.09-21.65 101.64-20.5L101.64-20.5 103.89-19.55Q108.74-17.45 110.84-15.08 112.94-12.7 112.94-9L112.94-9Q112.94-4.6 109.62-1.88 106.29 0.85 100.24 0.85ZM132.64 0.85L132.64 0.85Q127.79 0.85 123.89-1.15 119.99-3.15 117.72-7.05 115.44-10.95 115.44-16.55L115.44-16.55Q115.44-20.75 116.82-24 118.19-27.25 120.62-29.48 123.04-31.7 126.19-32.83 129.34-33.95 132.89-33.95L132.89-33.95Q135.64-33.95 138.04-33.33 140.44-32.7 142.64-31.5L142.64-31.5 142.84-24.95 141.49-24.95 139.39-28.9Q138.89-29.9 138.32-30.7 137.74-31.5 136.84-31.85L136.84-31.85Q135.59-32.45 133.89-32.45L133.89-32.45Q130.94-32.45 128.52-30.95 126.09-29.45 124.64-25.98 123.19-22.5 123.19-16.5L123.19-16.5Q123.19-10.55 124.57-7.05 125.94-3.55 128.29-2.08 130.64-0.6 133.59-0.6L133.59-0.6Q134.94-0.6 135.79-0.8 136.64-1 137.49-1.35L137.49-1.35Q138.49-1.75 139.04-2.53 139.59-3.3 139.99-4.3L139.99-4.3 141.89-8.85 143.24-8.85 143.04-1.65Q140.89-0.45 138.29 0.2 135.69 0.85 132.64 0.85ZM158.24 0L145.69 0 145.69-1.05 146.74-1.35Q147.74-1.65 148.01-2.23 148.29-2.8 148.29-3.85L148.29-3.85Q148.34-6.75 148.34-9.65 148.34-12.55 148.34-15.5L148.34-15.5 148.34-17.55Q148.34-20.45 148.34-23.35 148.34-26.25 148.29-29.15L148.29-29.15Q148.29-30.2 148.04-30.78 147.79-31.35 146.79-31.65L146.79-31.65 145.69-32 145.69-33.05 159.69-33.05Q165.54-33.05 168.71-30.83 171.89-28.6 171.89-24.6L171.89-24.6Q171.89-22.4 170.16-20.15 168.44-17.9 164.89-16.7L164.89-16.7 171.69-3.45Q172.54-1.8 174.34-1.2L174.34-1.2 175.29-1 175.29 0 166.44 0 158.99-15.6 155.39-15.6Q155.39-12.05 155.39-9.2 155.39-6.35 155.44-3.85L155.44-3.85Q155.44-2.85 155.76-2.25 156.09-1.65 157.04-1.4L157.04-1.4 158.24-1.05 158.24 0ZM155.39-17.05L155.39-17.05 158.09-17.05Q161.64-17.05 163.29-18.85 164.94-20.65 164.94-24.35L164.94-24.35Q164.94-28.05 163.36-29.83 161.79-31.6 158.29-31.6L158.29-31.6 155.44-31.6Q155.44-29.65 155.41-27.63 155.39-25.6 155.39-23.08 155.39-20.55 155.39-17.05ZM189.44 0L176.94 0 176.94-1.05 177.94-1.35Q178.94-1.7 179.26-2.27 179.59-2.85 179.59-3.9L179.59-3.9 179.59-29.15Q179.59-30.2 179.26-30.78 178.94-31.35 177.94-31.7L177.94-31.7 176.94-32 176.94-33.05 189.44-33.05 189.44-32 188.44-31.7Q187.49-31.35 187.14-30.78 186.79-30.2 186.79-29.15L186.79-29.15 186.79-3.9Q186.79-2.85 187.14-2.27 187.49-1.7 188.44-1.35L188.44-1.35 189.44-1.05 189.44 0ZM204.28 0L191.73 0 191.73-1.05 192.53-1.3Q193.58-1.7 193.96-2.35 194.33-3 194.33-4.1L194.33-4.1Q194.38-6.95 194.38-9.83 194.38-12.7 194.38-15.6L194.38-15.6 194.38-17.4Q194.38-20.3 194.36-23.18 194.33-26.05 194.33-28.95L194.33-28.95Q194.33-30.15 193.98-30.78 193.63-31.4 192.53-31.75L192.53-31.75 191.73-32 191.73-33.05 205.83-33.05Q211.83-33.05 214.53-30.83 217.23-28.6 217.23-25.2L217.23-25.2Q217.23-22.6 215.33-20.53 213.43-18.45 208.68-17.55L208.68-17.55Q214.18-16.95 216.63-14.7 219.08-12.45 219.08-9.2L219.08-9.2Q219.08-7.6 218.38-5.98 217.68-4.35 216.01-3 214.33-1.65 211.48-0.83 208.63 0 204.28 0L204.28 0ZM201.48-31.6L201.48-17.9 203.83-17.9Q207.23-17.9 208.76-19.43 210.28-20.95 210.28-24.65L210.28-24.65Q210.28-28.5 208.88-30.05 207.48-31.6 204.48-31.6L204.48-31.6 201.48-31.6ZM201.48-16.45L201.48-1.45 204.23-1.45Q207.98-1.45 209.83-3.3 211.68-5.15 211.68-9.25L211.68-9.25Q211.68-13.2 209.91-14.83 208.13-16.45 204.08-16.45L204.08-16.45 201.48-16.45ZM246.23 0L221.43 0 221.43-1.05 222.43-1.4Q223.33-1.65 223.68-2.27 224.03-2.9 224.08-4L224.08-4 224.08-29.15Q224.03-30.2 223.73-30.78 223.43-31.35 222.48-31.65L222.48-31.65 221.43-32 221.43-33.05 245.23-33.05 245.58-25.05 244.18-25.05 242.18-29.55Q241.78-30.5 241.28-31.03 240.78-31.55 239.78-31.55L239.78-31.55 231.28-31.55Q231.23-28.45 231.23-25.18 231.23-21.9 231.23-17.8L231.23-17.8 236.18-17.8Q237.18-17.8 237.71-18.32 238.23-18.85 238.68-19.75L238.68-19.75 239.53-21.65 240.63-21.65 240.63-12.4 239.53-12.4 238.63-14.3Q238.23-15.2 237.73-15.75 237.23-16.3 236.23-16.3L236.23-16.3 231.23-16.3Q231.23-12.7 231.23-10.1 231.23-7.5 231.26-5.48 231.28-3.45 231.28-1.5L231.28-1.5 240.88-1.5Q241.88-1.5 242.43-2.02 242.98-2.55 243.33-3.5L243.33-3.5 245.18-8 246.58-8 246.23 0ZM268.43 0L260.73 0 260.73-1.05 262.18-1.45Q263.13-1.7 263.5-2.4 263.88-3.1 263.88-4.1L263.88-4.1 263.88-28.3Q263.43-29.25 263.1-29.73 262.78-30.2 262.43-30.55 262.08-30.9 261.48-31.35L261.48-31.35 260.58-32 260.58-33.05 269.13-33.05 285.73-10.35 285.73-28.9Q285.73-29.9 285.4-30.65 285.08-31.4 284.08-31.65L284.08-31.65 282.58-32 282.58-33.05 290.03-33.05 290.03-32 288.78-31.65Q287.83-31.35 287.6-30.63 287.38-29.9 287.38-28.9L287.38-28.9 287.38 0.2 284.58 0.2 265.53-26 265.53-4.15Q265.53-3.1 265.83-2.4 266.13-1.7 267.08-1.45L267.08-1.45 268.43-1.05 268.43 0ZM308.52 0.85L308.52 0.85Q305.47 0.85 302.67-0.25 299.87-1.35 297.65-3.53 295.42-5.7 294.12-8.95 292.82-12.2 292.82-16.55L292.82-16.55Q292.82-20.8 294.12-24.05 295.42-27.3 297.65-29.5 299.87-31.7 302.7-32.83 305.52-33.95 308.52-33.95L308.52-33.95Q311.52-33.95 314.35-32.85 317.17-31.75 319.37-29.58 321.57-27.4 322.87-24.15 324.17-20.9 324.17-16.55L324.17-16.55Q324.17-12.3 322.87-9.05 321.57-5.8 319.37-3.6 317.17-1.4 314.37-0.28 311.57 0.85 308.52 0.85ZM308.52-0.65L308.52-0.65Q311.37-0.65 313.12-2.13 314.87-3.6 315.67-7.1 316.47-10.6 316.47-16.55L316.47-16.55Q316.47-22.5 315.67-25.98 314.87-29.45 313.12-30.93 311.37-32.4 308.52-32.4L308.52-32.4Q305.72-32.4 303.95-30.93 302.17-29.45 301.37-25.98 300.57-22.5 300.57-16.55L300.57-16.55Q300.57-10.6 301.37-7.1 302.17-3.6 303.95-2.13 305.72-0.65 308.52-0.65ZM340.57 0.2L337.12 0.2 328.47-29.25Q328.12-30.35 327.67-30.9 327.22-31.45 326.17-31.8L326.17-31.8 325.57-32 325.57-33.05 338.47-33.05 338.47-32 337.42-31.65Q336.27-31.3 335.95-30.65 335.62-30 335.92-28.85L335.92-28.85 341.37-8.35 347.32-26.1 346.42-29Q346.07-30.05 345.72-30.63 345.37-31.2 344.57-31.55L344.57-31.55 343.47-32 343.47-33.05 355.72-33.05 355.72-32 354.32-31.55Q353.32-31.2 353.17-30.55 353.02-29.9 353.37-28.8L353.37-28.8 359.67-8.05 365.47-28.5Q365.82-29.65 365.67-30.5 365.52-31.35 364.37-31.7L364.37-31.7 363.37-32 363.37-33.05 370.77-33.05 370.77-32 369.52-31.6Q368.52-31.25 368.1-30.58 367.67-29.9 367.37-28.8L367.37-28.8 359.17 0.2 355.72 0.2 348.32-23.1 340.57 0.2Z" opacity="1" transform="matrix(1,0,0,1,0,0)" fill="#ffffff" class="undefined-text-1" data-fill-palette-color="secondary" id="text-1"></path></svg></g></svg></g></svg></g></svg></g><g transform="matrix(1,0,0,1,140.7046774550128,0)"><svg viewBox="0 0 114.11064508997433 114.96294280421195" height="114.96294280421195" width="114.11064508997433"><g><svg xmlns="http://www.w3.org/2000/svg" xmlns:xlink="http://www.w3.org/1999/xlink" version="1.1" x="0" y="0" viewBox="3.427999496459961 3.006999969482422 57.571998596191406 58.00200653076172" style="enable-background:new 0 0 64 64;" xml:space="preserve" height="114.96294280421195" width="114.11064508997433" class="icon-icon-0" data-fill-palette-color="accent" id="icon-0"><g fill="#ffffff" data-fill-palette-color="accent"><path d="M21 31.007c-0.552 0-1 0.448-1 1 0 0.552 0.448 1 1 1h2c0.552 0 1-0.448 1-1 0-0.552-0.448-1-1-1H21z" fill="#ffffff" data-fill-palette-color="accent"></path><path d="M7 28.007h3.051c-0.027-0.331-0.051-0.662-0.051-1v-5H7c-0.552 0-1 0.448-1 1v4C6 27.559 6.448 28.007 7 28.007z" fill="#ffffff" data-fill-palette-color="accent"></path><path d="M25.816 31.007h5.343c0.538-1.226 0.841-2.578 0.841-4v-7.031c-3.76-0.238-7.262-1.816-9.949-4.504L22 15.421l-0.051 0.051C19.262 18.16 15.76 19.738 12 19.976v7.031c0 5.514 4.486 10 10 10 3.261 0 6.154-1.577 7.981-4h-4.165c-0.414 1.161-1.514 2-2.816 2h-2c-1.654 0-3-1.346-3-3 0-1.654 1.346-3 3-3h2C24.302 29.007 25.402 29.846 25.816 31.007zM28 22.007c0.552 0 1 0.448 1 1 0 0.552-0.448 1-1 1s-1-0.448-1-1C27 22.455 27.448 22.007 28 22.007zM16 24.007c-0.552 0-1-0.448-1-1 0-0.552 0.448-1 1-1s1 0.448 1 1C17 23.56 16.552 24.007 16 24.007z" fill="#ffffff" data-fill-palette-color="accent"></path><path d="M17.018 40.185l-7.399 1.233c-1.775 0.297-3.261 1.532-3.877 3.224l-2.314 6.366H8.22l0.811-3.242 1.939 0.484-0.689 2.758H21v-6.101C18.778 44.453 17.102 42.518 17.018 40.185z" fill="#ffffff" data-fill-palette-color="accent"></path><path d="M34 27.007c0 0.338-0.023 0.669-0.051 1H35v5h2v-5c0.552 0 1-0.448 1-1v-4c0-0.552-0.448-1-1-1h-3V27.007z" fill="#ffffff" data-fill-palette-color="accent"></path><path d="M10 18.007h1c3.602 0 6.988-1.402 9.535-3.949L22 12.593l1.465 1.465c2.547 2.547 5.934 3.949 9.535 3.949h1v2h2v-3.15c0-7.637-6.213-13.85-13.85-13.85-3.699 0-7.177 1.44-9.793 4.057l-0.846 0.847-0.27 0.066C9.333 8.455 8 10.163 8 12.13v7.877h2V18.007z" fill="#ffffff" data-fill-palette-color="accent"></path><path d="M25 40.007v-1.395c-0.961 0.249-1.962 0.395-3 0.395s-2.039-0.146-3-0.395v1.395c0 1.654 1.346 3 3 3S25 41.662 25 40.007z" fill="#ffffff" data-fill-palette-color="accent"></path><path d="M47 39.007c-4.411 0-8 3.589-8 8s3.589 8 8 8 8-3.589 8-8S51.411 39.007 47 39.007zM51 47.007c0-2.206-1.794-4-4-4s-4 1.794-4 4 1.794 4 4 4v2c-3.309 0-6-2.691-6-6s2.691-6 6-6 6 2.691 6 6H51z" fill="#ffffff" data-fill-palette-color="accent"></path><path d="M58.678 44.214l-0.16-0.554c-0.25-0.86-0.588-1.68-1.004-2.436l-0.278-0.505 1.232-2.044-3.137-3.137-2.044 1.232-0.505-0.278c-0.756-0.416-1.575-0.754-2.436-1.004l-0.554-0.16-0.575-2.322h-4.436l-0.575 2.322-0.554 0.16c-0.86 0.25-1.68 0.588-2.436 1.004l-0.505 0.278-2.044-1.232-3.137 3.137 1.232 2.044-0.278 0.505c-0.416 0.756-0.754 1.575-1.004 2.436l-0.16 0.554L33 44.79v4.436l2.322 0.575 0.16 0.554c0.25 0.86 0.588 1.68 1.004 2.436l0.278 0.505-1.232 2.044 3.137 3.137 2.044-1.232 0.505 0.278c0.756 0.416 1.575 0.754 2.436 1.004l0.554 0.16 0.575 2.322h4.436l0.575-2.322 0.554-0.16c0.86-0.25 1.68-0.588 2.436-1.004l0.505-0.278 2.044 1.232 3.137-3.137-1.232-2.044 0.278-0.505c0.416-0.756 0.754-1.575 1.004-2.436l0.16-0.554L61 49.225V44.79L58.678 44.214zM47 57.007c-5.514 0-10-4.486-10-10s4.486-10 10-10 10 4.486 10 10S52.514 57.007 47 57.007z" fill="#ffffff" data-fill-palette-color="accent"></path><path d="M31 43.225l2.735-0.678c0.133-0.397 0.289-0.783 0.454-1.162l-7.207-1.201c-0.084 2.334-1.76 4.269-3.982 4.722v6.101h8.879L31 50.79V43.225z" fill="#ffffff" data-fill-palette-color="accent"></path></g></svg></g></svg></g><g></g></svg></g><defs></defs></svg><rect width="395.52" height="209.6373009376245" fill="none" stroke="none" visibility="hidden"></rect></g></svg></g></svg>